<?xml version="1.0" standalone="no"?>
<!DOCTYPE svg PUBLIC "-//W3C//DTD SVG 20010904//EN"
 "http://www.w3.org/TR/2001/REC-SVG-20010904/DTD/svg10.dtd">
<svg version="1.0" xmlns="http://www.w3.org/2000/svg"
 width="377.000000pt" height="377.000000pt" viewBox="0 0 377.000000 377.000000"
 preserveAspectRatio="xMidYMid meet">
<metadata>
Created by potrace 1.11, written by Peter Selinger 2001-2013
</metadata>
<g transform="translate(0.000000,377.000000) scale(0.100000,-0.100000)"
fill="#000000" stroke="none">
<path d="M1900 3715 c-8 -14 -38 -42 -68 -61 -61 -41 -82 -79 -82 -146 0 -73
13 -79 59 -28 23 25 41 48 41 53 0 4 4 7 9 7 12 0 -3 -54 -24 -86 -23 -35 -5
-29 42 14 73 66 101 160 69 237 -18 42 -28 44 -46 10z"/>
<path d="M2161 3660 c-10 -6 -11 -12 -1 -30 7 -13 14 -37 16 -54 8 -57 13 -72
32 -94 18 -21 79 -52 102 -52 10 0 -15 74 -34 99 -9 11 -8 13 4 9 8 -2 24 -19
35 -36 11 -17 23 -31 26 -32 11 0 -14 82 -34 115 -32 52 -115 95 -146 75z"/>
<path d="M2569 3590 c-19 -17 -60 -45 -91 -61 -67 -34 -99 -84 -101 -156 -1
-67 12 -69 76 -10 64 59 78 48 27 -21 -37 -52 -37 -56 0 -37 112 58 183 210
136 293 l-13 24 -34 -32z"/>
<path d="M1476 3541 c-4 -6 0 -24 9 -41 9 -17 19 -52 22 -78 7 -59 25 -95 60
-120 36 -25 91 -43 98 -32 6 10 -18 80 -42 117 -17 28 -17 28 2 13 26 -18 63
-59 68 -73 2 -7 7 -9 11 -6 9 9 -20 97 -44 133 -12 17 -39 44 -60 58 -41 30
-113 47 -124 29z"/>
<path d="M1992 3463 c-11 -27 -37 -70 -56 -96 -31 -43 -35 -53 -32 -101 3 -54
41 -136 55 -119 6 7 35 71 57 128 13 32 17 -61 5 -97 -10 -27 -9 -29 5 -17 8
7 27 33 42 58 23 39 27 57 27 127 0 71 -3 85 -28 122 -15 23 -33 42 -40 42 -7
0 -23 -21 -35 -47z"/>
<path d="M1259 3433 c-1 -5 -3 -46 -3 -93 -1 -47 -6 -115 -10 -151 -7 -56 -6
-72 11 -110 30 -66 92 -125 150 -143 21 -7 21 -5 17 46 -8 107 -13 144 -20
168 l-7 25 20 -25 c30 -37 50 -81 58 -123 11 -57 23 -53 31 9 15 124 -13 229
-87 318 -41 49 -155 105 -160 79z"/>
<path d="M919 3345 c-41 -22 -42 -41 -6 -56 18 -7 41 -23 52 -35 28 -31 58
-44 99 -44 36 0 86 18 86 30 0 4 -23 19 -51 33 -63 31 -51 45 20 22 16 -5 20
-3 15 9 -16 42 -164 71 -215 41z"/>
<path d="M2734 3349 c-12 -20 -96 -68 -164 -94 -83 -32 -123 -70 -150 -143
-19 -51 -24 -132 -8 -147 7 -7 148 92 176 123 l23 27 -16 -39 c-17 -44 -52
-92 -93 -132 l-27 -26 25 7 c55 16 138 65 178 105 84 85 126 218 93 298 -14
33 -25 40 -37 21z"/>
<path d="M2176 3208 c2 -18 -5 -69 -16 -113 -11 -44 -18 -95 -15 -114 7 -51
52 -113 103 -140 22 -12 22 -11 23 51 1 35 0 79 0 98 l-1 35 14 -25 c8 -14 20
-49 27 -79 9 -46 13 -52 22 -36 6 11 12 51 15 90 6 107 -34 198 -110 248 -15
9 -36 17 -47 17 -16 0 -19 -5 -15 -32z"/>
<path d="M1680 3177 c0 -22 -16 -49 -82 -143 -15 -22 -29 -50 -31 -63 -6 -38
11 -110 34 -148 l22 -35 29 54 c16 29 33 69 37 88 l8 35 8 -29 c5 -17 4 -52
-2 -80 -6 -28 -9 -53 -8 -54 2 -2 19 20 39 50 58 88 70 201 30 281 -32 63 -84
91 -84 44z"/>
<path d="M3106 3172 c-7 -11 -77 -28 -150 -37 -62 -7 -99 -29 -130 -75 -24
-34 -48 -104 -40 -113 6 -6 136 42 149 54 5 5 13 9 18 9 16 0 -22 -43 -70 -77
l-48 -35 50 7 c79 11 141 43 190 97 46 51 70 106 63 148 -3 25 -22 38 -32 22z"/>
<path d="M812 3124 c-40 -16 -40 -24 -2 -57 16 -15 43 -53 59 -84 36 -72 66
-101 122 -117 38 -11 115 -13 126 -3 6 7 -82 116 -104 128 -35 19 -21 21 25 5
23 -8 54 -26 69 -40 35 -33 39 -27 15 21 -59 113 -214 188 -310 147z"/>
<path d="M1980 3066 c0 -13 -5 -47 -12 -75 -11 -47 -10 -52 16 -91 39 -60 52
-52 48 33 -1 35 14 26 23 -13 9 -40 20 -31 23 19 4 62 -32 131 -76 145 -19 6
-22 4 -22 -18z"/>
<path d="M3105 2895 c-11 -14 -33 -30 -48 -36 -57 -24 -93 -98 -78 -158 6 -23
8 -22 54 23 38 38 45 42 37 21 -5 -13 -17 -37 -27 -52 l-18 -28 35 22 c72 44
115 142 91 206 -13 33 -20 33 -46 2z"/>
<path d="M570 2899 c-36 -15 -36 -17 -6 -48 15 -16 42 -51 59 -77 37 -56 84
-84 142 -84 60 0 68 10 36 45 -14 17 -40 40 -56 53 l-29 23 26 -5 c31 -5 65
-22 93 -45 19 -16 19 -16 1 14 -64 103 -180 158 -266 124z"/>
<path d="M1876 2818 c10 -31 7 -138 -4 -168 -18 -50 4 -126 52 -178 30 -33 75
-62 95 -62 16 0 0 165 -19 201 -6 10 -8 19 -5 19 12 0 67 -98 77 -140 11 -41
13 -43 19 -20 3 14 6 59 5 100 -2 59 -8 86 -28 125 -46 88 -114 145 -173 145
-23 0 -25 -3 -19 -22z"/>
<path d="M3341 2796 c-18 -18 -56 -45 -86 -60 -90 -44 -132 -115 -121 -203 3
-25 7 -47 9 -49 2 -3 35 25 73 60 37 36 69 64 71 63 5 -5 -58 -122 -67 -125
-6 -2 -10 -8 -10 -13 0 -15 74 29 114 68 71 70 106 195 72 261 -9 18 -18 32
-19 32 -2 0 -18 -15 -36 -34z"/>
<path d="M2490 2761 c-6 -22 -29 -67 -51 -101 -50 -74 -60 -129 -35 -194 15
-39 52 -86 59 -75 9 13 47 117 50 136 5 37 17 39 19 2 2 -55 1 -72 -6 -109
l-7 -35 30 45 c78 113 76 259 -3 343 -15 15 -31 27 -36 27 -5 0 -14 -18 -20
-39z"/>
<path d="M2823 2766 c-4 -7 -29 -28 -55 -45 -52 -35 -76 -87 -64 -136 l7 -26
28 23 c16 13 34 32 39 43 10 20 11 20 11 -1 1 -12 -8 -33 -20 -48 -18 -23 -19
-25 -2 -19 66 23 118 132 94 196 -12 30 -26 34 -38 13z"/>
<path d="M1025 2760 c-3 -6 0 -17 9 -25 8 -8 20 -31 26 -50 12 -37 51 -65 90
-65 20 0 20 1 -5 40 -27 42 -24 51 7 23 27 -24 33 -8 9 25 -33 47 -119 79
-136 52z"/>
<path d="M1429 2734 c-20 -24 -17 -177 6 -279 14 -61 49 -170 58 -183 7 -9 7
-16 0 -23 -8 -8 -15 -4 -24 12 -7 13 -14 26 -14 29 0 3 -6 14 -12 25 -20 38
-62 163 -82 250 -12 48 -30 108 -41 132 -17 39 -23 44 -47 41 -25 -3 -28 -7
-28 -43 1 -104 24 -225 65 -343 28 -83 28 -86 6 -59 -12 16 -42 86 -66 158
-35 103 -47 129 -62 129 -25 0 -36 -34 -32 -100 6 -78 29 -150 81 -254 35 -70
40 -86 23 -71 -12 11 -38 43 -56 72 -46 68 -58 77 -83 63 -21 -10 -21 -11 5
-77 45 -120 67 -154 180 -266 141 -143 221 -233 255 -291 17 -30 34 -89 45
-164 3 -20 7 -48 9 -62 23 -134 22 -463 0 -581 -2 -10 -6 -46 -10 -81 -3 -35
-10 -90 -15 -123 -13 -81 -19 -135 -20 -163 0 -22 -3 -23 -94 -21 -90 1 -232
-16 -249 -31 -4 -4 -2 -7 5 -7 63 -1 181 -30 354 -88 195 -65 275 -79 419 -72
66 3 152 13 190 21 39 8 82 17 95 20 14 3 66 14 115 25 151 32 322 18 430 -37
l30 -15 -20 23 c-59 66 -227 161 -327 185 -57 13 -183 14 -245 1 -17 -4 -23 0
-24 12 -1 20 -4 51 -16 152 -4 41 -8 167 -8 280 1 164 4 212 16 240 20 43 126
176 232 290 90 96 146 186 176 279 26 81 26 98 0 106 -27 9 -39 -3 -83 -85
-48 -90 -61 -86 -22 7 41 97 56 161 61 254 5 82 -6 112 -38 107 -19 -3 -26
-20 -57 -143 -34 -133 -58 -196 -80 -210 -5 -3 4 32 20 77 16 46 32 103 35
128 13 107 15 128 19 175 6 71 -6 129 -26 133 -34 7 -55 -32 -73 -134 -9 -55
-19 -106 -22 -114 -3 -8 -7 -30 -9 -49 -2 -18 -9 -50 -16 -70 -7 -20 -12 -39
-13 -42 -1 -13 -41 -89 -47 -89 -3 0 3 39 14 88 14 62 21 126 22 223 1 122 -1
139 -18 158 -37 41 -64 20 -71 -55 -3 -27 -8 -78 -11 -114 -9 -90 -46 -233
-80 -305 -35 -75 -124 -168 -157 -163 -25 3 -25 4 -12 198 5 74 4 99 -7 114
-16 21 -58 15 -58 -9 0 -29 -63 -203 -98 -269 -33 -63 -36 -77 -35 -140 2 -72
8 -99 58 -261 33 -108 39 -252 19 -465 -7 -74 -16 -168 -19 -207 -4 -40 -8
-81 -10 -90 -2 -10 -4 -33 -4 -50 -1 -28 -4 -32 -23 -29 -17 2 -23 10 -22 27
1 22 9 142 19 308 11 165 13 360 6 396 -5 22 -25 96 -45 165 -60 206 -57 245
37 455 20 44 39 95 42 113 9 54 34 107 57 121 12 7 38 13 59 13 21 0 43 5 49
13 16 19 -1 78 -40 138 -45 72 -85 155 -106 220 -15 48 -21 57 -41 57 -45 0
-49 -60 -17 -223 20 -96 14 -114 -29 -103 -36 9 -113 91 -154 164 -36 64 -89
214 -98 275 -25 177 -54 232 -96 181z"/>
<path d="M2214 2673 c-11 -71 1 -115 37 -134 21 -11 23 -6 20 49 -2 41 14 34
24 -10 l8 -33 6 35 c11 59 -17 122 -65 148 -19 10 -21 7 -30 -55z"/>
<path d="M1661 2648 c-7 -94 -5 -108 19 -133 13 -14 27 -25 31 -25 4 0 10 19
12 43 l3 42 9 -34 c7 -28 10 -30 17 -16 25 44 -27 165 -71 165 -13 0 -18 -10
-20 -42z"/>
<path d="M476 2524 c1 -36 -2 -77 -7 -92 -31 -81 0 -170 78 -221 26 -17 51
-31 57 -31 13 0 6 157 -7 178 -5 6 -4 12 1 12 13 0 58 -88 67 -130 7 -33 8
-34 16 -12 5 13 11 50 13 83 6 106 -58 218 -149 260 -68 32 -73 28 -69 -47z"/>
<path d="M851 2529 c-41 -9 -74 -39 -51 -47 8 -3 33 -23 55 -44 21 -22 48 -46
59 -54 26 -18 96 -18 120 -1 16 12 15 15 -21 40 -21 14 -49 30 -63 36 -24 9
-23 10 12 10 20 1 48 -3 62 -9 38 -14 32 3 -11 33 -56 37 -106 49 -162 36z"/>
<path d="M2995 2520 c-3 -11 -33 -46 -66 -79 -32 -33 -59 -68 -60 -78 0 -10
-2 -27 -4 -38 -5 -23 12 -92 24 -99 8 -5 73 83 84 114 3 8 6 2 6 -13 1 -15 -6
-44 -14 -64 -21 -50 -19 -51 21 -12 71 67 96 187 54 257 -23 37 -36 41 -45 12z"/>
<path d="M2192 2396 c-3 -56 12 -96 35 -96 7 0 14 12 14 28 1 16 3 20 6 10 7
-27 23 -22 23 6 0 32 -14 69 -35 89 -29 30 -40 20 -43 -37z"/>
<path d="M2691 2424 c-13 -14 -37 -32 -52 -40 -35 -18 -59 -62 -59 -108 0 -59
17 -57 68 8 24 32 29 15 7 -24 -22 -38 -18 -43 14 -21 58 42 92 131 71 187
-12 30 -19 30 -49 -2z"/>
<path d="M3310 2389 c-7 -13 -30 -43 -51 -66 -21 -23 -41 -54 -45 -68 -7 -30
11 -105 26 -105 5 0 24 24 41 53 l31 52 -7 -38 c-3 -21 -9 -46 -12 -55 -11
-30 37 19 57 58 26 51 22 142 -6 171 l-22 21 -12 -23z"/>
<path d="M767 2264 c-3 -4 0 -19 8 -35 8 -15 15 -44 15 -64 0 -37 13 -69 36
-93 17 -16 84 -45 91 -38 3 2 -5 30 -16 62 -19 49 -20 55 -5 43 10 -8 25 -27
36 -44 l18 -30 0 27 c0 57 -52 137 -105 162 -34 17 -67 21 -78 10z"/>
<path d="M2059 2203 c0 -21 -4 -47 -8 -58 -12 -30 8 -80 41 -100 28 -16 30
-16 28 1 -1 11 -1 30 0 44 1 23 3 22 14 -10 l13 -34 6 30 c12 59 -17 134 -60
153 -33 15 -33 15 -34 -26z"/>
<path d="M3556 2189 c-22 -16 -63 -36 -92 -45 -37 -11 -63 -26 -88 -55 -20
-21 -36 -42 -37 -47 0 -4 -2 -16 -5 -27 -10 -44 -11 -71 -5 -88 6 -15 13 -13
61 19 30 20 61 43 67 52 7 9 15 13 19 10 8 -9 -13 -44 -53 -89 -19 -21 -33
-39 -29 -39 23 0 118 54 150 85 67 66 104 182 76 236 -14 24 -17 24 -64 -12z"/>
<path d="M2806 2164 c-4 -14 -22 -48 -40 -74 -26 -38 -33 -57 -31 -84 4 -36
33 -102 41 -93 3 3 17 31 30 64 l25 58 -4 -57 c-2 -32 -2 -58 -1 -58 2 0 15
20 29 44 39 67 36 155 -8 204 -26 28 -33 28 -41 -4z"/>
<path d="M214 2121 c-29 -13 -37 -28 -22 -38 23 -14 56 -68 73 -119 23 -69 39
-91 88 -116 40 -20 167 -35 167 -19 0 15 -73 118 -98 138 l-27 23 33 -10 c37
-10 51 -19 99 -64 l33 -30 -9 31 c-34 118 -136 202 -255 209 -33 2 -71 0 -82
-5z"/>
<path d="M3051 2053 c-17 -26 -49 -61 -70 -78 -54 -41 -75 -90 -69 -157 3 -29
11 -66 17 -82 l11 -28 34 44 c19 24 43 62 55 83 l21 40 0 -35 c0 -19 -9 -55
-20 -79 -11 -24 -19 -46 -16 -48 2 -2 24 17 49 42 61 60 90 137 85 222 -4 60
-27 111 -55 120 -6 2 -25 -18 -42 -44z"/>
<path d="M705 1923 c10 -47 10 -85 1 -146 -12 -85 34 -156 127 -196 l47 -20
-6 57 c-4 31 -13 75 -20 97 -7 21 -11 41 -9 43 7 7 64 -80 76 -116 l12 -37 8
28 c12 46 2 131 -20 175 -45 89 -125 152 -192 152 -31 0 -31 0 -24 -37z"/>
<path d="M1046 1911 c-3 -5 1 -21 8 -37 8 -16 17 -47 21 -69 10 -69 44 -102
118 -112 34 -5 35 8 2 65 -29 52 -17 54 29 6 l34 -37 -9 44 c-13 58 -52 107
-103 130 -44 20 -91 25 -100 10z"/>
<path d="M3257 1796 c-46 -14 -96 -53 -120 -95 l-18 -31 81 0 c45 0 91 5 102
11 15 8 19 8 14 0 -11 -17 -77 -48 -120 -57 -48 -9 -31 -20 44 -28 124 -14
272 70 282 160 3 27 2 28 -48 25 -29 -1 -69 2 -90 8 -67 17 -88 19 -127 7z"/>
<path d="M285 1722 c-41 -20 -85 -56 -85 -70 0 -5 16 -14 35 -21 19 -6 60 -36
90 -66 31 -30 73 -59 92 -66 44 -14 111 -6 163 21 36 19 53 40 31 40 -5 0 -35
16 -67 35 -32 19 -66 35 -77 35 -10 0 -16 4 -13 8 7 12 110 6 136 -8 36 -19
35 -2 -1 30 -60 53 -108 73 -189 77 -59 3 -83 0 -115 -15z"/>
<path d="M1389 1642 c0 -20 -4 -46 -8 -57 -11 -28 3 -72 31 -95 13 -11 26 -19
29 -20 3 0 5 21 4 48 l-2 47 15 -35 c15 -35 15 -35 22 -10 14 54 -22 134 -68
151 -20 8 -22 5 -23 -29z"/>
<path d="M2756 1631 c-3 -5 8 -24 25 -42 17 -18 36 -40 42 -49 7 -9 23 -24 37
-33 13 -9 19 -17 13 -17 -19 0 -77 27 -106 50 -15 12 -30 20 -33 17 -11 -11
61 -107 101 -136 81 -58 202 -75 246 -35 17 15 16 17 -15 44 -17 16 -45 54
-61 86 -33 65 -56 90 -104 110 -37 16 -137 19 -145 5z"/>
<path d="M1082 1559 c-24 -9 -24 -9 22 -60 25 -28 46 -55 46 -60 0 -27 102
-49 146 -32 15 5 9 14 -32 50 l-49 43 35 -11 c19 -7 41 -16 48 -22 28 -22 20
2 -12 35 -59 61 -139 83 -204 57z"/>
<path d="M2612 1401 c3 -79 -9 -80 -35 -1 l-15 45 -7 -38 c-18 -94 23 -199 92
-235 41 -22 53 -16 49 26 -1 20 1 51 6 67 23 79 -2 153 -65 190 l-29 17 4 -71z"/>
<path d="M985 1384 c-31 -74 -46 -128 -40 -143 5 -13 4 -14 -7 -3 -9 9 -13 40
-13 93 0 43 -1 79 -2 79 -7 0 -60 -101 -69 -132 -28 -91 10 -230 76 -273 28
-19 39 -22 40 -10 2 25 37 96 71 144 32 45 42 69 42 98 0 53 -19 105 -53 148
l-29 37 -16 -38z"/>
<path d="M606 1393 c-66 -20 -156 -109 -175 -174 -13 -45 -17 -116 -6 -127 3
-3 25 4 50 16 24 12 75 26 112 33 104 18 150 61 173 162 11 51 6 74 -13 59 -7
-5 -34 -17 -61 -28 -27 -10 -62 -29 -79 -43 l-30 -25 16 31 c9 17 37 49 63 72
42 36 44 41 23 40 -13 0 -46 -7 -73 -16z"/>
<path d="M1244 1293 c-11 -42 -11 -42 -13 -53 0 -5 -6 -10 -12 -10 -7 0 -10
15 -7 40 5 51 -5 51 -26 0 -18 -45 -21 -116 -7 -154 20 -50 71 -89 71 -52 0 8
14 40 30 71 35 66 38 107 10 153 -24 39 -35 40 -46 5z"/>
<path d="M973 380 c-23 -5 -61 -18 -85 -29 l-43 -19 45 -2 c132 -4 229 -33
459 -137 311 -141 446 -183 598 -184 124 -1 185 13 492 112 85 28 184 57 220
65 73 17 178 19 228 5 66 -19 41 9 -44 51 l-88 42 -125 1 c-121 0 -165 -4
-280 -25 -30 -5 -68 -12 -85 -15 -16 -3 -73 -13 -125 -23 -181 -36 -310 -18
-645 87 -71 23 -150 46 -175 52 -25 6 -54 13 -65 16 -40 9 -241 12 -282 3z"/>
<path d="M810 282 c-74 -6 -184 -33 -256 -63 -41 -17 -73 -34 -70 -37 3 -3 38
0 78 6 116 18 176 23 284 23 127 -1 180 -7 323 -37 63 -13 116 -22 118 -20 10
10 -189 96 -252 110 -72 16 -164 23 -225 18z"/>
</g>
</svg>
